<svg width="41" height="36" viewBox="0 0 41 36" fill="none" xmlns="http://www.w3.org/2000/svg">
<path d="M39.25 5.28124C29.6562 5.28124 20.0625 5.28124 10.4687 5.28124H9.71872C9.35934 4.03124 9.01559 2.82811 8.65622 1.62499C8.42184 0.812486 8.04684 0.531236 7.20309 0.515611C6.35934 0.515611 5.53122 0.515611 4.68747 0.515611C3.70309 0.515611 2.71872 0.499986 1.73434 0.515611C0.984345 0.531236 0.468719 1.06249 0.468719 1.73436C0.468719 2.42186 0.984345 2.87499 1.76559 2.89061C2.57809 2.89061 3.40622 2.89061 4.21872 2.89061H6.56247C8.26559 8.84374 9.93747 14.7187 11.625 20.5781C11.9843 21.8281 12.2812 22.9531 11.6562 24.3281C10.7187 26.4062 12.5468 28.8125 14.8437 28.8594C15.5312 28.8594 16.25 28.8594 17.0156 28.8594C15.5781 29.25 14.5156 30.5469 14.5156 32.1094C14.5156 33.9844 16.0312 35.4844 17.8906 35.4844C19.75 35.4844 21.2656 33.9687 21.2656 32.1094C21.2656 30.5625 20.2187 29.2812 18.8125 28.875H29.8437C28.4375 29.2812 27.3906 30.5625 27.3906 32.1094C27.3906 33.9844 28.9062 35.4844 30.7656 35.4844C32.625 35.4844 34.1406 33.9687 34.1406 32.1094C34.1406 30.5625 33.0937 29.2812 31.6875 28.875H33.5C33.9531 28.875 34.4218 28.8594 34.875 28.8594C35.4375 28.8594 35.7812 28.5625 35.9531 28.0625C36.1093 27.5781 36.0156 27.0937 35.5937 26.8281C35.2968 26.6406 34.8906 26.5625 34.5468 26.5625C28.1875 26.5625 21.8281 26.5625 15.4687 26.5625C15.1718 26.5625 14.875 26.5469 14.5937 26.4687C14.0468 26.2969 13.7187 25.75 13.7968 25.2031C13.9062 24.4844 14.2187 24.2031 14.9375 24.2031C21.4687 24.2031 28 24.2031 34.5312 24.2031C35.4375 24.2031 35.8281 23.9219 36.0625 23.1094C37.5937 17.7812 39.1093 12.4687 40.625 7.14061C40.9843 5.90624 40.5156 5.31249 39.2187 5.31249L39.25 5.28124Z" fill="#8E36B7"/>
</svg>
