<svg width="24" height="25" viewBox="0 0 24 25" fill="none" xmlns="http://www.w3.org/2000/svg">
<path d="M22.5333 24.9667L13.7667 16.2C13.1 16.7778 12.3222 17.2278 11.4333 17.55C10.5444 17.8722 9.6 18.0333 8.6 18.0333C6.2 18.0333 4.16667 17.2 2.5 15.5333C0.833333 13.8667 0 11.8556 0 9.50001C0 7.14445 0.833333 5.13334 2.5 3.46667C4.16667 1.80001 6.18889 0.966675 8.56667 0.966675C10.9222 0.966675 12.9278 1.80001 14.5833 3.46667C16.2389 5.13334 17.0667 7.14445 17.0667 9.50001C17.0667 10.4556 16.9111 11.3778 16.6 12.2667C16.2889 13.1556 15.8222 13.9889 15.2 14.7667L24 23.5L22.5333 24.9667ZM8.56667 16.0333C10.3667 16.0333 11.9 15.3945 13.1667 14.1167C14.4333 12.8389 15.0667 11.3 15.0667 9.50001C15.0667 7.70001 14.4333 6.16112 13.1667 4.88334C11.9 3.60556 10.3667 2.96667 8.56667 2.96667C6.74444 2.96667 5.19444 3.60556 3.91667 4.88334C2.63889 6.16112 2 7.70001 2 9.50001C2 11.3 2.63889 12.8389 3.91667 14.1167C5.19444 15.3945 6.74444 16.0333 8.56667 16.0333Z" fill="white"/>
</svg>
