<svg width="26" height="28" viewBox="0 0 26 28" fill="none" xmlns="http://www.w3.org/2000/svg">
<path d="M3.0908 7.36252C2.72517 7.36252 2.3783 7.36252 2.0408 7.36252C1.34705 7.36252 0.840796 6.90315 0.822046 6.27502C0.803296 5.65627 1.30017 5.1594 2.0033 5.14065C2.66892 5.1219 3.33455 5.14065 4.00017 5.14065C4.76892 5.14065 5.54705 5.14065 6.33455 5.14065C6.37205 4.55002 6.36267 3.98752 6.44705 3.4344C6.68142 1.92502 8.0408 0.743774 9.56892 0.734399C11.8658 0.715649 14.1627 0.715649 16.4595 0.734399C18.1658 0.753149 19.6095 2.21565 19.6564 3.9219C19.6658 4.30627 19.6564 4.69065 19.6564 5.14065C19.8252 5.14065 19.9752 5.14065 20.1158 5.14065C21.3908 5.14065 22.6658 5.14065 23.9314 5.14065C24.8314 5.14065 25.3658 5.80627 25.1314 6.60315C25.0002 7.05315 24.5877 7.35315 24.0627 7.3719C23.7064 7.38128 23.3408 7.38127 22.9845 7.39065C22.9752 7.39065 22.9658 7.40002 22.9189 7.43752C22.8533 8.56252 22.797 9.72503 22.7314 10.8781C22.572 13.6625 22.4033 16.4563 22.2533 19.2407C22.1595 20.8813 22.0658 22.5313 21.9908 24.1719C21.9158 25.8407 20.5002 27.2844 18.8127 27.2938C14.9502 27.3125 11.0877 27.3125 7.22517 27.2938C5.5283 27.2844 4.13142 25.8219 4.03767 24.1344C3.89705 21.3594 3.70955 18.5844 3.55955 15.8094C3.43767 13.5969 3.32517 11.3938 3.21267 9.18127C3.18455 8.60002 3.13767 8.02815 3.0908 7.3719V7.36252ZM9.6908 16.2313C9.6908 15.1813 9.6908 14.1313 9.6908 13.0813C9.6908 12.3125 9.25017 11.7969 8.59392 11.7875C7.94705 11.7782 7.46892 12.2938 7.46892 13.0532C7.46892 15.1625 7.46892 17.2813 7.46892 19.3907C7.46892 19.6438 7.54392 19.9157 7.6658 20.1313C7.90017 20.5438 8.40642 20.7125 8.84704 20.5907C9.36267 20.45 9.67205 20.0563 9.68142 19.4938C9.6908 18.4063 9.68142 17.3094 9.68142 16.2219L9.6908 16.2313ZM16.3377 16.2313C16.3377 17.2907 16.3377 18.3594 16.3377 19.4188C16.3377 20.1407 16.7689 20.6282 17.4064 20.6469C18.0439 20.675 18.5502 20.1688 18.5595 19.4469C18.5689 17.2907 18.5689 15.1344 18.5595 12.9782C18.5595 12.275 18.072 11.7782 17.4439 11.7782C16.8064 11.7782 16.347 12.3032 16.3377 13.025C16.3377 14.0844 16.3377 15.1532 16.3377 16.2125V16.2313ZM8.6033 5.10315H17.4158C17.4158 4.7469 17.4158 4.41877 17.4158 4.09065C17.397 3.36877 16.9939 2.95627 16.2814 2.9469C15.5877 2.93752 14.9033 2.9469 14.2095 2.9469C12.7189 2.9469 11.2283 2.9469 9.7283 2.9469C9.10017 2.9469 8.65017 3.3219 8.6033 3.87502C8.57517 4.26877 8.6033 4.6719 8.6033 5.10315ZM11.9127 16.2407C11.9127 17.2907 11.9127 18.3407 11.9127 19.3907C11.9127 19.6063 11.9408 19.8407 12.0252 20.0375C12.222 20.4782 12.747 20.7125 13.197 20.6188C13.7408 20.5063 14.0783 20.1032 14.0783 19.5219C14.0783 17.3469 14.0783 15.1813 14.0783 13.0063C14.0783 12.2563 13.6189 11.7594 12.972 11.7782C12.3252 11.7969 11.9033 12.2657 11.9033 12.9969C11.9033 14.075 11.9033 15.1532 11.9033 16.2313L11.9127 16.2407Z" fill="#C5C5C5"/>
</svg>
